# Blender v2.82 (sub 7) OBJ File: 'icosphere_unwrap.blend'
# www.blender.org
mtllib icosphere.mtl
o Icosphere
v 0.000000 0.000000 -1.000000
v 0.723607 -0.525725 -0.447220
v -0.276388 -0.850649 -0.447220
v -0.894426 0.000000 -0.447216
v -0.276388 0.850649 -0.447220
v 0.723607 0.525725 -0.447220
v 0.276388 -0.850649 0.447220
v -0.723607 -0.525725 0.447220
v -0.723607 0.525725 0.447220
v 0.276388 0.850649 0.447220
v 0.894426 0.000000 0.447216
v 0.000000 0.000000 1.000000
v -0.162456 -0.499995 -0.850654
v 0.425323 -0.309011 -0.850654
v 0.262869 -0.809012 -0.525738
v 0.850648 0.000000 -0.525736
v 0.425323 0.309011 -0.850654
v -0.525730 0.000000 -0.850652
v -0.688189 -0.499997 -0.525736
v -0.162456 0.499995 -0.850654
v -0.688189 0.499997 -0.525736
v 0.262869 0.809012 -0.525738
v 0.951058 -0.309013 0.000000
v 0.951058 0.309013 0.000000
v 0.000000 -1.000000 0.000000
v 0.587786 -0.809017 0.000000
v -0.951058 -0.309013 0.000000
v -0.587786 -0.809017 0.000000
v -0.587786 0.809017 0.000000
v -0.951058 0.309013 0.000000
v 0.587786 0.809017 0.000000
v 0.000000 1.000000 0.000000
v 0.688189 -0.499997 0.525736
v -0.262869 -0.809012 0.525738
v -0.850648 0.000000 0.525736
v -0.262869 0.809012 0.525738
v 0.688189 0.499997 0.525736
v 0.162456 -0.499995 0.850654
v 0.525730 0.000000 0.850652
v -0.425323 -0.309011 0.850654
v -0.425323 0.309011 0.850654
v 0.162456 0.499995 0.850654
vt 0.250063 0.235750
vt 0.101830 0.036492
vt 0.393761 0.033199
vt 0.000617 0.755387
vt 0.100875 0.523593
vt 0.241495 0.757401
vt 0.487107 0.309825
vt 0.252862 0.484081
vt 0.014750 0.315151
vt 0.096985 0.988828
vt -0.002901 0.753452
vt 0.237980 0.751611
vt 0.097187 0.985321
vt 0.010494 0.747891
vt 0.251382 0.747556
vt 0.109130 0.980380
vt 0.009449 0.746429
vt 0.250339 0.745707
vt 0.108464 0.978760
vt 0.011452 0.746728
vt 0.252335 0.745185
vt 0.111257 0.978721
vt 0.619573 0.717993
vt 0.500557 0.542793
vt 0.740065 0.543803
vt 0.620267 0.714682
vt 0.508186 0.551039
vt 0.732480 0.551128
vt 0.620066 0.719369
vt 0.500349 0.543296
vt 0.741117 0.544210
vt 0.619081 0.718039
vt 0.503956 0.548129
vt 0.736039 0.549388
vt 0.618657 0.710649
vt 0.514665 0.559814
vt 0.721841 0.559261
vt 0.014018 0.748457
vt 0.254872 0.744222
vt 0.116409 0.979317
vt -0.004843 0.755362
vt 0.236037 0.753394
vt 0.095372 0.987175
vt -0.001008 0.748571
vt 0.239877 0.749205
vt 0.096695 0.981453
vt 0.011638 0.746705
vt 0.252522 0.745267
vt 0.111343 0.978738
vt 0.012937 0.746847
vt 0.253823 0.746070
vt 0.112004 0.979152
vt 0.484226 0.313437
vt 0.249980 0.487693
vt 0.247181 0.239362
vt 0.397147 0.978233
vt 0.494713 0.745293
vt 0.011869 0.318763
vt 0.396480 0.977034
vt 0.493406 0.743827
vt 0.098948 0.040104
vt 0.381834 0.982203
vt 0.480762 0.749839
vt 0.390880 0.036811
vt 0.380504 0.984844
vt 0.476917 0.751425
vt 0.401509 0.974303
vt 0.495723 0.739987
vt 0.110498 0.513906
vt 0.395644 0.512984
vt 0.108560 0.513495
vt 0.393700 0.511791
vt 0.097919 0.516204
vt 0.383059 0.516954
vt 0.091570 0.521939
vt 0.376707 0.519609
vt 0.108232 0.514137
vt 0.393336 0.509126
vt 0.500788 0.545153
vt 0.736898 0.545153
vt 0.618844 0.717370
vt 0.396397 0.976895
vt 0.493219 0.743643
vt 0.498238 0.543246
vt 0.744117 0.544704
vt 0.620116 0.723317
vt 0.393610 0.977904
vt 0.491226 0.744985
vt 0.504315 0.553029
vt 0.737752 0.553535
vt 0.620664 0.723549
vt 0.394276 0.979986
vt 0.492272 0.747222
vt 0.497903 0.538811
vt 0.741566 0.537728
vt 0.620523 0.715996
vt 0.382324 0.983142
vt 0.478861 0.749770
vt 0.501595 0.543188
vt 0.737037 0.541491
vt 0.620554 0.714070
vt 0.382116 0.991212
vt 0.482373 0.759415
vt 0.108278 0.513479
vt 0.393414 0.511654
vt 0.107068 0.513511
vt 0.392211 0.512657
vt 0.108489 0.515131
vt 0.393633 0.514735
vt 0.386005 0.525977
vt 0.093635 0.520084
vt 0.378769 0.517905
vn 0.0000 0.0000 -1.0000
vn 0.4253 -0.3090 -0.8506
vn -0.1625 -0.5000 -0.8506
vn 0.7236 -0.5257 -0.4472
vn 0.8506 0.0000 -0.5257
vn -0.5257 0.0000 -0.8506
vn -0.1625 0.5000 -0.8506
vn 0.4253 0.3090 -0.8506
vn 0.9510 -0.3090 0.0000
vn -0.2764 -0.8506 -0.4472
vn 0.2629 -0.8090 -0.5257
vn 0.0000 -1.0000 0.0000
vn -0.8944 0.0000 -0.4472
vn -0.6882 -0.5000 -0.5257
vn -0.9510 -0.3090 0.0000
vn -0.2764 0.8506 -0.4472
vn -0.6882 0.5000 -0.5257
vn -0.5878 0.8090 0.0000
vn 0.7236 0.5257 -0.4472
vn 0.2629 0.8090 -0.5257
vn 0.5878 0.8090 0.0000
vn 0.5878 -0.8090 0.0000
vn -0.5878 -0.8090 0.0000
vn -0.9510 0.3090 0.0000
vn 0.0000 1.0000 0.0000
vn 0.9510 0.3090 0.0000
vn 0.2764 -0.8506 0.4472
vn 0.6882 -0.5000 0.5257
vn 0.1625 -0.5000 0.8506
vn -0.7236 -0.5257 0.4472
vn -0.2629 -0.8090 0.5257
vn -0.4253 -0.3090 0.8506
vn -0.7236 0.5257 0.4472
vn -0.8506 0.0000 0.5257
vn -0.4253 0.3090 0.8506
vn 0.2764 0.8506 0.4472
vn -0.2629 0.8090 0.5257
vn 0.1625 0.5000 0.8506
vn 0.8944 0.0000 0.4472
vn 0.6882 0.5000 0.5257
vn 0.5257 0.0000 0.8506
vn 0.0000 0.0000 1.0000
usemtl icosphere_mat
s 1
f 1/1/1 14/2/2 13/3/3
f 2/4/4 14/5/2 16/6/5
f 1/1/1 13/3/3 18/7/6
f 1/1/1 18/7/6 20/8/7
f 1/1/1 20/8/7 17/9/8
f 2/4/4 16/6/5 23/10/9
f 3/11/10 15/12/11 25/13/12
f 4/14/13 19/15/14 27/16/15
f 5/17/16 21/18/17 29/19/18
f 6/20/19 22/21/20 31/22/21
f 2/23/4 23/24/9 26/25/22
f 3/26/10 25/27/12 28/28/23
f 4/29/13 27/30/15 30/31/24
f 5/32/16 29/33/18 32/34/25
f 6/35/19 31/36/21 24/37/26
f 7/38/27 33/39/28 38/40/29
f 8/41/30 34/42/31 40/43/32
f 9/44/33 35/45/34 41/46/35
f 10/47/36 36/48/37 42/49/38
f 11/50/39 37/51/40 39/52/41
f 39/53/41 42/54/38 12/55/42
f 39/52/41 37/51/40 42/56/38
f 37/51/40 10/57/36 42/56/38
f 42/54/38 41/58/35 12/55/42
f 42/49/38 36/48/37 41/59/35
f 36/48/37 9/60/33 41/59/35
f 41/58/35 40/61/32 12/55/42
f 41/46/35 35/45/34 40/62/32
f 35/45/34 8/63/30 40/62/32
f 40/61/32 38/64/29 12/55/42
f 40/43/32 34/42/31 38/65/29
f 34/42/31 7/66/27 38/65/29
f 38/64/29 39/53/41 12/55/42
f 38/40/29 33/39/28 39/67/41
f 33/39/28 11/68/39 39/67/41
f 24/69/26 37/51/40 11/50/39
f 24/69/26 31/70/21 37/51/40
f 31/70/21 10/57/36 37/51/40
f 32/71/25 36/48/37 10/47/36
f 32/71/25 29/72/18 36/48/37
f 29/72/18 9/60/33 36/48/37
f 30/73/24 35/45/34 9/44/33
f 30/73/24 27/74/15 35/45/34
f 27/74/15 8/63/30 35/45/34
f 28/75/23 34/42/31 8/41/30
f 28/75/23 25/76/12 34/42/31
f 25/76/12 7/66/27 34/42/31
f 26/77/22 33/39/28 7/38/27
f 26/77/22 23/78/9 33/39/28
f 23/78/9 11/68/39 33/39/28
f 31/79/21 32/80/25 10/81/36
f 31/22/21 22/21/20 32/82/25
f 22/21/20 5/83/16 32/82/25
f 29/84/18 30/85/24 9/86/33
f 29/19/18 21/18/17 30/87/24
f 21/18/17 4/88/13 30/87/24
f 27/89/15 28/90/23 8/91/30
f 27/16/15 19/15/14 28/92/23
f 19/15/14 3/93/10 28/92/23
f 25/94/12 26/95/22 7/96/27
f 25/13/12 15/12/11 26/97/22
f 15/12/11 2/98/4 26/97/22
f 23/99/9 24/100/26 11/101/39
f 23/10/9 16/6/5 24/102/26
f 16/6/5 6/103/19 24/102/26
f 17/104/8 22/21/20 6/20/19
f 17/104/8 20/105/7 22/21/20
f 20/105/7 5/83/16 22/21/20
f 20/106/7 21/18/17 5/17/16
f 20/106/7 18/107/6 21/18/17
f 18/107/6 4/88/13 21/18/17
f 18/108/6 19/15/14 4/14/13
f 18/108/6 13/109/3 19/15/14
f 13/109/3 3/93/10 19/15/14
f 16/6/5 17/110/8 6/103/19
f 16/6/5 14/5/2 17/110/8
f 14/2/2 1/1/1 17/9/8
f 13/111/3 15/12/11 3/11/10
f 13/111/3 14/112/2 15/12/11
f 14/112/2 2/98/4 15/12/11
